<svg id="8e459231-48d2-432a-ba35-6497d4396349" data-name="Layer 1" xmlns="http://www.w3.org/2000/svg" viewBox="0 0 172 169"><title>colors</title><path d="M86.77,169.32c-11.4-2-23.36-3.35-34.79-6.54-5.7-1.59-10.37-6.72-15.65-10a26.56,26.56,0,0,0-6.6-2.64c-6.18-1.82-12.69-2.86-18.56-5.39C3.11,141.27-.78,134.65-.38,125.57c1-21.49,7.84-40.16,25.65-53.39,13-9.67,24.26-9.6,37.89-.84a5.44,5.44,0,0,0,4.67.25c12-6.87,24-6.91,36.12-.22a6.17,6.17,0,0,0,5.14-.38c14.25-8.68,26.24-8.06,39,2.49,17.5,14.42,24.56,33.48,24,55.64-.15,6.49-2.89,12.43-9.22,14.88-7.36,2.86-15.18,4.54-22.78,6.8-1.47.44-3.48.84-4.15,1.94-4,6.47-10.27,9.64-17.13,11.14C108.54,166.14,98,167.47,86.77,169.32Zm-54.23-25c.17-26.52,7.06-49.45,26.73-67.13-8.72-7.19-19-7.49-28.8-.59C12.87,89.05,6.49,107,6.23,127.69c-.07,5.39,3.08,9.3,7.9,11.13C20,141,26.11,142.45,32.54,144.34Zm77.9-60L44.25,150.52c5.22,6.06,6.72,6.13,12.4.44q27.89-28,55.83-55.85c1.28-1.27,3-2.07,4.93-3.35Zm-70.6,58,63.84-62.82c-7.86-5.54-7.87-5.54-14.5,1.1C74.39,95.42,59.83,110.51,44.69,125,38.82,130.6,39.08,136.64,39.84,142.3ZM121,97.68,60.33,158.36c8.84,3,9.16,2.89,16-4l43.76-43.75c5.72-5.72,5.73-5.72,1.24-12.6C121.07,97.66,120.69,97.34,121,97.68Zm7,15L80.82,160.76c7,1.36,13.38.51,19.13-6.19,7.88-9.19,17-17.32,25.58-25.9C132.08,122.12,132.08,122.12,128,112.67ZM43.4,115.08l42-42C68.75,72.36,44.21,97.13,43.4,115.08Zm60.09,45.69c7-2.06,13.35-3.3,19.18-5.8a17.14,17.14,0,0,0,9.2-22.24Z"/><path d="M64.49,50.36C52,61.68,38.5,62.82,28,53.61,18,44.83,16.2,30.86,23.66,20.29c8.24-11.66,21.55-14,36.21-6.06C66.32,5.7,74.77.12,85.83.08s19.29,5.39,25.45,14.71c7.09-4.42,14.46-6.9,22.72-4.27A25.75,25.75,0,0,1,148.13,21c6.59,10,4.72,24.17-4.22,32.38q-15.53,14.25-37.08-2.71C90.54,61.93,79.31,61.89,64.49,50.36ZM44.54,54.47c4.06-2,8.25-3.8,12.14-6.1,2.62-1.56,3-3.72,2-7.13a57.22,57.22,0,0,1-1.94-16.56c0-2.82-.55-4.26-2.76-5.59-6.57-4-14.57-3.38-21,1.68a17.94,17.94,0,0,0-6,20.15C29.54,48.32,36.31,53.25,44.54,54.47ZM71.84,48,103.9,15.83,98,10.42,66.27,42Zm9,3.75a21.44,21.44,0,0,0,20.74-5.9c6.19-6.13,8.24-13.62,6.44-21.28C99.07,33.49,89.93,42.63,80.83,51.72ZM89.29,7.17C81.07,5.94,74,8.64,68.37,15a20.11,20.11,0,0,0-5,17.79Z"/></svg>